<svg width="20" height="20" viewBox="0 0 20 20" fill="none" xmlns="http://www.w3.org/2000/svg">
    <path fill-rule="evenodd" clip-rule="evenodd" d="M8.33317 4.58333C8.33317 4.35333 8.52067 4.16667 8.74984 4.16667H11.2498C11.479 4.16667 11.6665 4.35333 11.6665 4.58333V5.83333H8.33317V4.58333ZM15.8332 5.83333H13.3332V4.58333C13.3332 3.435 12.399 2.5 11.2498 2.5H8.74984C7.60067 2.5 6.6665 3.435 6.6665 4.58333V5.83333H4.1665C2.78817 5.83333 1.6665 6.955 1.6665 8.33333V15C1.6665 16.3783 2.78817 17.5 4.1665 17.5H15.8332C17.2115 17.5 18.3332 16.3783 18.3332 15V8.33333C18.3332 6.955 17.2115 5.83333 15.8332 5.83333Z" fill="#3C4455"/>
</svg>
