<svg width="64" height="64" viewBox="0 0 64 64" fill="none" xmlns="http://www.w3.org/2000/svg">
    <path d="M32.0003 26.655C27.4711 26.655 23.7952 29.9445 23.7952 36.5235C23.7952 43.1025 27.4711 46.392 32.0003 46.392C36.5295 46.392 40.2054 43.1025 40.2054 36.5235C40.2054 29.9445 36.5295 26.655 32.0003 26.655ZM14.7695 33.2669C12.9808 33.2669 11.5203 34.7307 11.5203 36.5235C11.5203 38.3163 12.9808 39.7801 14.7695 39.7801C16.5583 39.7801 18.0188 38.3163 18.0188 36.5235C18.0188 34.7307 16.5583 33.2669 14.7695 33.2669ZM49.2311 33.2669C47.4424 33.2669 45.9819 34.7307 45.9819 36.5235C45.9819 38.3163 47.4424 39.7801 49.2311 39.7801C51.0198 39.7801 52.4803 38.3163 52.4803 36.5235C52.4803 34.7307 51.0198 33.2669 49.2311 33.2669ZM55.1388 6.0957H9.19005C7.828 6.0957 6.72852 7.19768 6.72852 8.56282C6.72852 9.92796 7.828 11.0299 9.19005 11.0299H55.1388C56.5008 11.0299 57.6003 9.92796 57.6003 8.56282C57.6003 7.19768 56.4844 6.0957 55.1388 6.0957Z" fill="#B6CACE"/>
    <path d="M63.2615 16.3761C63.1303 16.2117 62.9826 16.0637 62.8185 15.9321C62.2441 15.4551 61.5221 15.1426 60.7179 15.1426H53.6615H10.3385H3.28205C1.47692 15.1426 0 16.6229 0 18.4321V54.6165C0 56.4257 1.47692 57.906 3.28205 57.906H60.7179C62.5231 57.906 64 56.4257 64 54.6165V18.4321C64 17.6426 63.721 16.9354 63.2615 16.3761ZM58.2564 44.748C54.1703 44.748 50.8718 48.054 50.8718 52.1494H13.1282C13.1282 48.054 9.82974 44.748 5.74359 44.748V28.3006C9.82974 28.3006 13.1282 24.9946 13.1282 20.8992H50.8718C50.8718 24.9946 54.1703 28.3006 58.2564 28.3006V44.748Z" fill="#B6CACE"/>
</svg>
