<svg width="24" height="24" viewBox="0 0 24 24" fill="none" xmlns="http://www.w3.org/2000/svg">
    <path d="M5.12735 7.83612C4.79475 7.83697 4.46527 7.77349 4.15799 7.64936C3.85071 7.52522 3.57172 7.3429 3.33716 7.11293L2 5.80887L3.1929 4.6455L4.5309 5.94956C4.6915 6.09932 4.90514 6.18291 5.12735 6.18291C5.34955 6.18291 5.56319 6.09932 5.72379 5.94956L8.74906 3L9.94196 4.16337L6.91669 7.11293C6.68234 7.34295 6.40351 7.52531 6.09635 7.64945C5.7892 7.7736 5.45983 7.83705 5.12735 7.83612ZM22 5.36787H11.8764V7.01337H22V5.36787ZM6.91669 13.6949L9.94196 10.7454L8.74906 9.582L5.72379 12.5316C5.56319 12.6813 5.34955 12.7649 5.12735 12.7649C4.90514 12.7649 4.6915 12.6813 4.5309 12.5316L3.1929 11.2275L2 12.3909L3.33716 13.6949C3.57218 13.9242 3.8512 14.106 4.15829 14.2301C4.46538 14.3541 4.79453 14.418 5.12692 14.418C5.45932 14.418 5.78847 14.3541 6.09556 14.2301C6.40265 14.106 6.68167 13.9242 6.91669 13.6949ZM22 11.9499H11.8764V13.5954H22V11.9499ZM6.91669 20.2769L9.94196 17.3274L8.74906 16.164L5.72379 19.1136C5.56319 19.2633 5.34955 19.3469 5.12735 19.3469C4.90514 19.3469 4.6915 19.2633 4.5309 19.1136L3.1929 17.8095L2 18.9729L3.33716 20.2769C3.57218 20.5062 3.8512 20.688 4.15829 20.8121C4.46538 20.9361 4.79453 21 5.12692 21C5.45932 21 5.78847 20.9361 6.09556 20.8121C6.40265 20.688 6.68167 20.5062 6.91669 20.2769ZM22 18.5319H11.8764V20.1774H22V18.5319Z" fill="#17677B"/>
</svg>
